# Blender 3.5.1
# www.blender.org
mtllib 证件照.mtl
o 平面.012
v 11.344056 -0.003631 2.785174
v 15.384551 0.000075 2.785174
v 11.313579 0.011976 -2.785174
v 15.360358 -0.047593 -2.767334
v 11.313579 0.000075 0.000000
v 15.384551 0.000075 0.000000
v 13.349065 0.000075 2.785174
v 13.349065 0.000075 -2.785174
v 13.349065 0.000075 0.000000
v 15.384551 -0.001440 -1.392587
v 11.313579 0.000075 -1.392587
v 13.349065 0.000075 -1.392587
v 11.313579 0.000075 1.392587
v 15.384551 0.000075 1.392587
v 13.349065 0.000075 1.392587
v 12.331322 0.000075 -2.785174
v 12.331322 0.000075 0.000000
v 12.331322 0.000075 2.785174
v 12.331322 0.000075 -1.392587
v 12.331322 0.000075 1.392587
v 14.366808 0.000075 2.785174
v 14.366808 0.000075 -2.785174
v 14.366808 0.000075 0.000000
v 14.366808 0.000075 -1.392587
v 14.366808 0.000075 1.392587
v 11.504405 -0.003768 -2.785174
v 11.504405 0.000075 0.000000
v 11.504405 0.000075 -1.392587
v 11.504405 0.000075 1.392587
v 11.504405 0.000075 2.785174
v 11.347572 0.000075 2.521426
v 15.384551 0.000075 2.521426
v 13.349065 0.000075 2.521426
v 12.331322 0.000075 2.521426
v 14.366808 0.000075 2.521426
v 11.504405 0.000075 2.521426
v 15.384551 0.000075 0.696294
v 13.349065 0.000075 0.696294
v 11.313579 0.000075 0.696294
v 12.331322 0.000075 0.696294
v 14.366808 0.000075 0.696294
v 11.504405 0.000075 0.696294
v 11.313579 0.000075 -0.696294
v 15.384551 -0.001369 -0.696294
v 13.349065 0.000075 -0.696294
v 12.331322 0.000075 -0.696294
v 14.366808 0.000075 -0.696294
v 11.504405 0.000075 -0.696294
v 15.384551 0.000075 -2.088881
v 13.349065 0.000075 -2.088881
v 11.313579 0.000075 -2.088881
v 12.331322 0.000075 -2.088881
v 14.366808 0.000075 -2.088881
v 11.504405 0.000075 -2.088881
v 15.384551 0.000075 1.957007
v 13.349065 0.000075 1.957007
v 12.331322 0.000075 1.957007
v 14.366808 0.000075 1.957007
v 11.504405 0.000075 1.957007
v 11.313579 0.000075 1.957007
v 12.840193 0.000075 2.785174
v 12.840193 0.000075 -2.785174
v 12.840193 0.000075 0.000000
v 12.840193 0.000075 -1.392587
v 12.840193 0.000075 1.392587
v 12.840193 0.000075 2.521426
v 12.840193 0.000075 0.696294
v 12.840193 0.000075 -0.696294
v 12.840193 0.000075 -2.088881
v 12.840193 0.000075 1.957007
v 13.857937 0.000075 -2.785174
v 13.857937 0.000075 0.000000
v 13.857937 0.000075 -1.392587
v 13.857937 0.000075 1.392587
v 13.857937 0.000075 2.785174
v 13.857937 0.000075 2.521426
v 13.857937 0.000075 0.696294
v 13.857937 0.000075 -0.696294
v 13.857937 0.000075 -2.088881
v 13.857937 0.000075 1.957007
v 15.384551 -0.001232 -1.044440
v 13.349065 0.000075 -1.044440
v 12.331322 0.000075 -1.044440
v 14.366808 0.000075 -1.044440
v 11.504405 0.000075 -1.044440
v 11.313579 0.000075 -1.044440
v 12.840193 0.000075 -1.044440
v 13.857937 0.000075 -1.044440
v 11.917864 0.000075 2.785174
v 11.917864 0.000075 -2.785174
v 11.917864 0.000075 0.000000
v 11.917864 0.000075 -1.392587
v 11.917864 0.000075 1.392587
v 11.917864 0.000075 2.521426
v 11.917864 0.000075 0.696294
v 11.917864 0.000075 -0.696294
v 11.917864 0.000075 -2.088881
v 11.917864 0.000075 1.957007
v 11.917864 0.000075 -1.044440
v 14.875679 0.000075 2.785174
v 14.875679 0.000075 -2.785174
v 14.875679 0.000075 0.000000
v 14.875679 0.000075 -1.392587
v 14.875679 0.000075 1.392587
v 14.875679 0.000075 2.521426
v 14.875679 0.000075 0.696294
v 14.875679 0.000075 -0.696294
v 14.875679 0.000075 -2.088881
v 14.875679 0.000075 1.957007
v 14.875679 0.000075 -1.044440
v 11.342884 0.000075 2.359004
v 15.384551 0.000075 2.359004
v 13.349065 0.000075 2.359004
v 12.331322 0.000075 2.359004
v 14.366808 0.000075 2.359004
v 11.504405 0.000075 2.359004
v 12.840193 0.000075 2.359004
v 13.857937 0.000075 2.359004
v 11.917864 0.000075 2.359004
v 14.875679 0.000075 2.359004
v 11.349917 -0.004146 2.677646
v 15.384551 0.000075 2.677646
v 13.349065 0.000075 2.677646
v 12.331322 0.000075 2.677646
v 14.366808 0.000075 2.677646
v 11.504405 0.000075 2.677646
v 12.840193 0.000075 2.677646
v 13.857937 0.000075 2.677646
v 11.917864 0.000075 2.677646
v 14.875679 0.000075 2.677646
v 11.354180 -0.004346 -2.785174
v 11.354180 0.000075 0.000000
v 11.354180 0.000075 -1.392587
v 11.354180 0.000075 1.392587
v 11.347669 -0.003631 2.787616
v 11.354180 0.000075 2.521426
v 11.354180 0.000075 0.696294
v 11.354180 0.000075 -0.696294
v 11.354180 0.000075 -2.088881
v 11.354180 0.000075 1.957007
v 11.354180 0.000075 -1.044440
v 11.354180 0.000075 2.359004
v 11.354180 -0.004146 2.677646
v 11.344056 -0.008280 2.785174
v 15.384551 -0.008280 2.785174
v 11.312691 0.008650 -2.785271
v 15.360142 -0.055938 -2.767038
v 11.313579 -0.008280 0.000000
v 15.384551 -0.008280 0.000000
v 13.349065 -0.008280 2.785174
v 13.349065 -0.008280 -2.785174
v 13.349065 -0.008280 0.000000
v 15.384551 -0.006765 -1.392587
v 11.313579 -0.008280 -1.392587
v 13.349065 -0.008280 -1.392587
v 11.313579 -0.008280 1.392587
v 15.384551 -0.008280 1.392587
v 13.349065 -0.008280 1.392587
v 12.331322 -0.008280 -2.785174
v 12.331322 -0.008280 0.000000
v 12.331322 -0.008280 2.785174
v 12.331322 -0.008280 -1.392587
v 12.331322 -0.008280 1.392587
v 14.366808 -0.008280 2.785174
v 14.366808 -0.008280 -2.785174
v 14.366808 -0.008280 0.000000
v 14.366808 -0.008280 -1.392587
v 14.366808 -0.008280 1.392587
v 11.504405 -0.008280 -2.785174
v 11.504405 -0.008280 0.000000
v 11.504405 -0.008280 -1.392587
v 11.504405 -0.008280 1.392587
v 11.504405 -0.008280 2.785174
v 11.347572 -0.008280 2.521426
v 15.384551 -0.008280 2.521426
v 13.349065 -0.008280 2.521426
v 12.331322 -0.008280 2.521426
v 14.366808 -0.008280 2.521426
v 11.504405 -0.008280 2.521426
v 15.384551 -0.008280 0.696294
v 13.349065 -0.008280 0.696294
v 11.313579 -0.008280 0.696294
v 12.331322 -0.008280 0.696294
v 14.366808 -0.008280 0.696294
v 11.504405 -0.008280 0.696294
v 11.313579 -0.008280 -0.696294
v 15.384551 -0.006836 -0.696294
v 13.349065 -0.008280 -0.696294
v 12.331322 -0.008280 -0.696294
v 14.366808 -0.008280 -0.696294
v 11.504405 -0.008280 -0.696294
v 15.384444 -0.008278 -2.088735
v 13.349065 -0.008280 -2.088881
v 11.313133 -0.008258 -2.088929
v 12.331322 -0.008280 -2.088881
v 14.366808 -0.008280 -2.088881
v 11.504405 -0.008280 -2.088881
v 15.384551 -0.008280 1.957007
v 13.349065 -0.008280 1.957007
v 12.331322 -0.008280 1.957007
v 14.366808 -0.008280 1.957007
v 11.504405 -0.008280 1.957007
v 11.313579 -0.008280 1.957007
v 12.840193 -0.008280 2.785174
v 12.840193 -0.008280 -2.785174
v 12.840193 -0.008280 0.000000
v 12.840193 -0.008280 -1.392587
v 12.840193 -0.008280 1.392587
v 12.840193 -0.008280 2.521426
v 12.840193 -0.008280 0.696294
v 12.840193 -0.008280 -0.696294
v 12.840193 -0.008280 -2.088881
v 12.840193 -0.008280 1.957007
v 13.857937 -0.008280 -2.785174
v 13.857937 -0.008280 0.000000
v 13.857937 -0.008280 -1.392587
v 13.857937 -0.008280 1.392587
v 13.857937 -0.008280 2.785174
v 13.857937 -0.008280 2.521426
v 13.857937 -0.008280 0.696294
v 13.857937 -0.008280 -0.696294
v 13.857937 -0.008280 -2.088881
v 13.857937 -0.008280 1.957007
v 15.384551 -0.006973 -1.044440
v 13.349065 -0.008280 -1.044440
v 12.331322 -0.008280 -1.044440
v 14.366808 -0.008280 -1.044440
v 11.504405 -0.008280 -1.044440
v 11.313579 -0.008280 -1.044440
v 12.840193 -0.008280 -1.044440
v 13.857937 -0.008280 -1.044440
v 11.917864 -0.008280 2.785174
v 11.917864 -0.008280 -2.785174
v 11.917864 -0.008280 0.000000
v 11.917864 -0.008280 -1.392587
v 11.917864 -0.008280 1.392587
v 11.917864 -0.008280 2.521426
v 11.917864 -0.008280 0.696294
v 11.917864 -0.008280 -0.696294
v 11.917864 -0.008280 -2.088881
v 11.917864 -0.008280 1.957007
v 11.917864 -0.008280 -1.044440
v 14.875679 -0.008280 2.785174
v 14.875572 -0.008278 -2.785027
v 14.875679 -0.008280 0.000000
v 14.875679 -0.008280 -1.392587
v 14.875679 -0.008280 1.392587
v 14.875679 -0.008280 2.521426
v 14.875679 -0.008280 0.696294
v 14.875679 -0.008280 -0.696294
v 14.875626 -0.008280 -2.088806
v 14.875679 -0.008280 1.957007
v 14.875679 -0.008280 -1.044440
v 11.342884 -0.008280 2.359004
v 15.384551 -0.008280 2.359004
v 13.349065 -0.008280 2.359004
v 12.331322 -0.008280 2.359004
v 14.366808 -0.008280 2.359004
v 11.504405 -0.008280 2.359004
v 12.840193 -0.008280 2.359004
v 13.857937 -0.008280 2.359004
v 11.917864 -0.008280 2.359004
v 14.875679 -0.008280 2.359004
v 11.349917 -0.008280 2.677646
v 15.384551 -0.008280 2.677646
v 13.349065 -0.008280 2.677646
v 12.331322 -0.008280 2.677646
v 14.366808 -0.008280 2.677646
v 11.504405 -0.008280 2.677646
v 12.840193 -0.008280 2.677646
v 13.857937 -0.008280 2.677646
v 11.917864 -0.008280 2.677646
v 14.875679 -0.008280 2.677646
v 11.353735 -0.007425 -2.785223
v 11.354180 -0.008280 0.000000
v 11.354180 -0.008280 -1.392587
v 11.354180 -0.008280 1.392587
v 11.347669 -0.008280 2.787616
v 11.354180 -0.008280 2.521426
v 11.354180 -0.008280 0.696294
v 11.354180 -0.008280 -0.696294
v 11.353958 -0.008275 -2.088905
v 11.354180 -0.008280 1.957007
v 11.354180 -0.008280 -1.044440
v 11.354180 -0.008280 2.359004
v 11.354180 -0.008280 2.677646
vn 0.0485 0.9982 -0.0355
vn -0.0000 1.0000 -0.0000
vn 0.0028 1.0000 -0.0003
vn -0.0019 1.0000 -0.0059
vn -0.0140 0.9998 0.0135
vn 0.0014 1.0000 -0.0010
vn 0.0015 1.0000 0.0011
vn 0.0027 1.0000 0.0002
vn -0.0046 1.0000 -0.0028
vn -0.0258 0.9997 -0.0031
vn 0.0014 1.0000 -0.0046
vn -0.0000 0.9996 0.0270
vn 0.1971 0.9804 0.0053
vn -0.0485 -0.9982 0.0355
vn -0.0000 -1.0000 -0.0000
vn 0.0028 -1.0000 -0.0003
vn -0.0029 -1.0000 -0.0006
vn 0.0014 -1.0000 -0.0010
vn 0.0015 -1.0000 0.0011
vn 0.0027 -1.0000 0.0002
vn -0.0002 -1.0000 -0.0000
vn -0.1928 -0.9812 -0.0124
vn -0.9985 -0.0000 -0.0544
vn -0.0000 -0.0000 1.0000
vn 0.9992 -0.0203 -0.0343
vn 0.0089 0.0208 -0.9997
vn -1.0000 -0.0000 -0.0000
vn 1.0000 -0.0000 -0.0000
vn -0.0000 -0.0000 -1.0000
vn -0.9996 0.0266 0.0003
vn 0.0001 -0.0088 -1.0000
vn 0.0156 -0.0000 0.9999
vn -0.9996 -0.0000 0.0289
vn 1.0000 -0.0078 -0.0001
vn -0.9935 0.1135 0.0027
vn 0.0343 -0.0272 -0.9990
vn -0.9974 -0.0000 0.0727
vn -0.9999 -0.0000 0.0150
vn 0.0002 0.0064 -1.0000
vn -0.5600 -0.0000 0.8285
vt 0.000000 0.000000
vt 1.000000 0.000000
vt 0.000000 1.000000
vt 1.000000 1.000000
vt 0.000000 0.500000
vt 1.000000 0.500000
vt 0.500000 0.000000
vt 0.500000 1.000000
vt 0.500000 0.500000
vt 1.000000 0.750000
vt 0.000000 0.750000
vt 0.500000 0.750000
vt 0.000000 0.250000
vt 1.000000 0.250000
vt 0.500000 0.250000
vt 0.250000 1.000000
vt 0.250000 0.500000
vt 0.250000 0.000000
vt 0.250000 0.750000
vt 0.250000 0.250000
vt 0.750000 0.000000
vt 0.750000 1.000000
vt 0.750000 0.500000
vt 0.750000 0.750000
vt 0.750000 0.250000
vt 0.046875 1.000000
vt 0.046875 0.500000
vt 0.046875 0.750000
vt 0.046875 0.250000
vt 0.046875 0.000000
vt 0.000000 0.047348
vt 1.000000 0.047348
vt 0.500000 0.047348
vt 0.250000 0.047348
vt 0.750000 0.047348
vt 0.046875 0.047348
vt 1.000000 0.375000
vt 0.500000 0.375000
vt 0.000000 0.375000
vt 0.250000 0.375000
vt 0.750000 0.375000
vt 0.046875 0.375000
vt 0.000000 0.625000
vt 1.000000 0.625000
vt 0.500000 0.625000
vt 0.250000 0.625000
vt 0.750000 0.625000
vt 0.046875 0.625000
vt 1.000000 0.875000
vt 0.500000 0.875000
vt 0.000000 0.875000
vt 0.250000 0.875000
vt 0.750000 0.875000
vt 0.046875 0.875000
vt 1.000000 0.148674
vt 0.500000 0.148674
vt 0.250000 0.148674
vt 0.750000 0.148674
vt 0.046875 0.148674
vt 0.000000 0.148674
vt 0.375000 0.000000
vt 0.375000 1.000000
vt 0.375000 0.500000
vt 0.375000 0.750000
vt 0.375000 0.250000
vt 0.375000 0.047348
vt 0.375000 0.375000
vt 0.375000 0.625000
vt 0.375000 0.875000
vt 0.375000 0.148674
vt 0.625000 1.000000
vt 0.625000 0.500000
vt 0.625000 0.750000
vt 0.625000 0.250000
vt 0.625000 0.000000
vt 0.625000 0.047348
vt 0.625000 0.375000
vt 0.625000 0.625000
vt 0.625000 0.875000
vt 0.625000 0.148674
vt 1.000000 0.687500
vt 0.500000 0.687500
vt 0.250000 0.687500
vt 0.750000 0.687500
vt 0.046875 0.687500
vt 0.000000 0.687500
vt 0.375000 0.687500
vt 0.625000 0.687500
vt 0.148438 0.000000
vt 0.148438 1.000000
vt 0.148438 0.500000
vt 0.148438 0.750000
vt 0.148438 0.250000
vt 0.148438 0.047348
vt 0.148438 0.375000
vt 0.148438 0.625000
vt 0.148438 0.875000
vt 0.148438 0.148674
vt 0.148438 0.687500
vt 0.875000 0.000000
vt 0.875000 1.000000
vt 0.875000 0.500000
vt 0.875000 0.750000
vt 0.875000 0.250000
vt 0.875000 0.047348
vt 0.875000 0.375000
vt 0.875000 0.625000
vt 0.875000 0.875000
vt 0.875000 0.148674
vt 0.875000 0.687500
vt 0.000000 0.076507
vt 1.000000 0.076507
vt 0.500000 0.076507
vt 0.250000 0.076507
vt 0.750000 0.076507
vt 0.046875 0.076507
vt 0.375000 0.076507
vt 0.625000 0.076507
vt 0.148438 0.076507
vt 0.875000 0.076507
vt 0.000000 0.019304
vt 1.000000 0.019304
vt 0.500000 0.019304
vt 0.250000 0.019304
vt 0.750000 0.019304
vt 0.046875 0.019304
vt 0.375000 0.019304
vt 0.625000 0.019304
vt 0.148438 0.019304
vt 0.875000 0.019304
vt 0.009973 1.000000
vt 0.009973 0.500000
vt 0.009973 0.750000
vt 0.009973 0.250000
vt 0.009973 0.000000
vt 0.009973 0.047348
vt 0.009973 0.375000
vt 0.009973 0.625000
vt 0.009973 0.875000
vt 0.009973 0.148674
vt 0.009973 0.687500
vt 0.009973 0.076507
vt 0.009973 0.019304
vt 0.000000 0.000000
vt 1.000000 0.000000
vt 0.000000 1.000000
vt 1.000000 1.000000
vt 0.000000 0.500000
vt 1.000000 0.500000
vt 0.500000 0.000000
vt 0.500000 1.000000
vt 0.500000 0.500000
vt 1.000000 0.750000
vt 0.000000 0.750000
vt 0.500000 0.750000
vt 0.000000 0.250000
vt 1.000000 0.250000
vt 0.500000 0.250000
vt 0.250000 1.000000
vt 0.250000 0.500000
vt 0.250000 0.000000
vt 0.250000 0.750000
vt 0.250000 0.250000
vt 0.750000 0.000000
vt 0.750000 1.000000
vt 0.750000 0.500000
vt 0.750000 0.750000
vt 0.750000 0.250000
vt 0.046875 1.000000
vt 0.046875 0.500000
vt 0.046875 0.750000
vt 0.046875 0.250000
vt 0.046875 0.000000
vt 0.000000 0.047348
vt 1.000000 0.047348
vt 0.500000 0.047348
vt 0.250000 0.047348
vt 0.750000 0.047348
vt 0.046875 0.047348
vt 1.000000 0.375000
vt 0.500000 0.375000
vt 0.000000 0.375000
vt 0.250000 0.375000
vt 0.750000 0.375000
vt 0.046875 0.375000
vt 0.000000 0.625000
vt 1.000000 0.625000
vt 0.500000 0.625000
vt 0.250000 0.625000
vt 0.750000 0.625000
vt 0.046875 0.625000
vt 1.000000 0.875000
vt 0.500000 0.875000
vt 0.000000 0.875000
vt 0.250000 0.875000
vt 0.750000 0.875000
vt 0.046875 0.875000
vt 1.000000 0.148674
vt 0.500000 0.148674
vt 0.250000 0.148674
vt 0.750000 0.148674
vt 0.046875 0.148674
vt 0.000000 0.148674
vt 0.375000 0.000000
vt 0.375000 1.000000
vt 0.375000 0.500000
vt 0.375000 0.750000
vt 0.375000 0.250000
vt 0.375000 0.047348
vt 0.375000 0.375000
vt 0.375000 0.625000
vt 0.375000 0.875000
vt 0.375000 0.148674
vt 0.625000 1.000000
vt 0.625000 0.500000
vt 0.625000 0.750000
vt 0.625000 0.250000
vt 0.625000 0.000000
vt 0.625000 0.047348
vt 0.625000 0.375000
vt 0.625000 0.625000
vt 0.625000 0.875000
vt 0.625000 0.148674
vt 1.000000 0.687500
vt 0.500000 0.687500
vt 0.250000 0.687500
vt 0.750000 0.687500
vt 0.046875 0.687500
vt 0.000000 0.687500
vt 0.375000 0.687500
vt 0.625000 0.687500
vt 0.148438 0.000000
vt 0.148438 1.000000
vt 0.148438 0.500000
vt 0.148438 0.750000
vt 0.148438 0.250000
vt 0.148438 0.047348
vt 0.148438 0.375000
vt 0.148438 0.625000
vt 0.148438 0.875000
vt 0.148438 0.148674
vt 0.148438 0.687500
vt 0.875000 0.000000
vt 0.875000 1.000000
vt 0.875000 0.500000
vt 0.875000 0.750000
vt 0.875000 0.250000
vt 0.875000 0.047348
vt 0.875000 0.375000
vt 0.875000 0.625000
vt 0.875000 0.875000
vt 0.875000 0.148674
vt 0.875000 0.687500
vt 0.000000 0.076507
vt 1.000000 0.076507
vt 0.500000 0.076507
vt 0.250000 0.076507
vt 0.750000 0.076507
vt 0.046875 0.076507
vt 0.375000 0.076507
vt 0.625000 0.076507
vt 0.148438 0.076507
vt 0.875000 0.076507
vt 0.000000 0.019304
vt 1.000000 0.019304
vt 0.500000 0.019304
vt 0.250000 0.019304
vt 0.750000 0.019304
vt 0.046875 0.019304
vt 0.375000 0.019304
vt 0.625000 0.019304
vt 0.148438 0.019304
vt 0.875000 0.019304
vt 0.009973 1.000000
vt 0.009973 0.500000
vt 0.009973 0.750000
vt 0.009973 0.250000
vt 0.009973 0.000000
vt 0.009973 0.047348
vt 0.009973 0.375000
vt 0.009973 0.625000
vt 0.009973 0.875000
vt 0.009973 0.148674
vt 0.009973 0.687500
vt 0.009973 0.076507
vt 0.009973 0.019304
s 0
usemtl 材质.015
f 108/108/1 49/49/1 4/4/1 101/101/1
f 106/106/2 37/37/2 6/6/2 102/102/2
f 67/67/2 38/38/2 9/9/2 63/63/2
f 69/69/2 50/50/2 8/8/2 62/62/2
f 87/87/2 82/82/2 12/12/2 64/64/2
f 110/110/3 81/81/3 10/10/3 103/103/3
f 70/70/2 56/56/2 15/15/2 65/65/2
f 109/109/2 55/55/2 14/14/2 104/104/2
f 98/98/2 57/57/2 20/20/2 93/93/2
f 99/99/2 83/83/2 19/19/2 92/92/2
f 97/97/2 52/52/2 16/16/2 90/90/2
f 95/95/2 40/40/2 17/17/2 91/91/2
f 80/80/2 58/58/2 25/25/2 74/74/2
f 88/88/2 84/84/2 24/24/2 73/73/2
f 77/77/2 41/41/2 23/23/2 72/72/2
f 79/79/2 53/53/2 22/22/2 71/71/2
f 137/137/2 42/42/2 27/27/2 132/132/2
f 139/139/4 54/54/4 26/26/4 131/131/4
f 141/141/2 85/85/2 28/28/2 133/133/2
f 140/140/2 59/59/2 29/29/2 134/134/2
f 143/143/5 126/126/5 36/36/5 136/136/5
f 128/128/2 125/125/2 35/35/2 76/76/2
f 129/129/2 124/124/2 34/34/2 94/94/2
f 130/130/2 122/122/2 32/32/2 105/105/2
f 127/127/2 123/123/2 33/33/2 66/66/2
f 134/134/2 29/29/2 42/42/2 137/137/2
f 74/74/2 25/25/2 41/41/2 77/77/2
f 93/93/2 20/20/2 40/40/2 95/95/2
f 65/65/2 15/15/2 38/38/2 67/67/2
f 104/104/2 14/14/2 37/37/2 106/106/2
f 132/132/2 27/27/2 48/48/2 138/138/2
f 72/72/2 23/23/2 47/47/2 78/78/2
f 91/91/2 17/17/2 46/46/2 96/96/2
f 102/102/6 6/6/6 44/44/6 107/107/6
f 63/63/2 9/9/2 45/45/2 68/68/2
f 133/133/2 28/28/2 54/54/2 139/139/2
f 73/73/2 24/24/2 53/53/2 79/79/2
f 92/92/2 19/19/2 52/52/2 97/97/2
f 64/64/2 12/12/2 50/50/2 69/69/2
f 103/103/7 10/10/7 49/49/7 108/108/7
f 142/142/2 116/116/2 59/59/2 140/140/2
f 118/118/2 115/115/2 58/58/2 80/80/2
f 119/119/2 114/114/2 57/57/2 98/98/2
f 120/120/2 112/112/2 55/55/2 109/109/2
f 117/117/2 113/113/2 56/56/2 70/70/2
f 114/114/2 117/117/2 70/70/2 57/57/2
f 19/19/2 64/64/2 69/69/2 52/52/2
f 17/17/2 63/63/2 68/68/2 46/46/2
f 20/20/2 65/65/2 67/67/2 40/40/2
f 124/124/2 127/127/2 66/66/2 34/34/2
f 57/57/2 70/70/2 65/65/2 20/20/2
f 83/83/2 87/87/2 64/64/2 19/19/2
f 52/52/2 69/69/2 62/62/2 16/16/2
f 40/40/2 67/67/2 63/63/2 17/17/2
f 113/113/2 118/118/2 80/80/2 56/56/2
f 12/12/2 73/73/2 79/79/2 50/50/2
f 9/9/2 72/72/2 78/78/2 45/45/2
f 15/15/2 74/74/2 77/77/2 38/38/2
f 123/123/2 128/128/2 76/76/2 33/33/2
f 50/50/2 79/79/2 71/71/2 8/8/2
f 38/38/2 77/77/2 72/72/2 9/9/2
f 82/82/2 88/88/2 73/73/2 12/12/2
f 56/56/2 80/80/2 74/74/2 15/15/2
f 45/45/2 78/78/2 88/88/2 82/82/2
f 46/46/2 68/68/2 87/87/2 83/83/2
f 138/138/2 48/48/2 85/85/2 141/141/2
f 78/78/2 47/47/2 84/84/2 88/88/2
f 96/96/2 46/46/2 83/83/2 99/99/2
f 107/107/8 44/44/8 81/81/8 110/110/8
f 68/68/2 45/45/2 82/82/2 87/87/2
f 48/48/2 96/96/2 99/99/2 85/85/2
f 116/116/2 119/119/2 98/98/2 59/59/2
f 28/28/2 92/92/2 97/97/2 54/54/2
f 27/27/2 91/91/2 96/96/2 48/48/2
f 29/29/2 93/93/2 95/95/2 42/42/2
f 126/126/2 129/129/2 94/94/2 36/36/2
f 42/42/2 95/95/2 91/91/2 27/27/2
f 54/54/9 97/97/9 90/90/9 26/26/9
f 85/85/2 99/99/2 92/92/2 28/28/2
f 59/59/2 98/98/2 93/93/2 29/29/2
f 47/47/2 107/107/2 110/110/2 84/84/2
f 115/115/2 120/120/2 109/109/2 58/58/2
f 24/24/2 103/103/2 108/108/2 53/53/2
f 23/23/2 102/102/2 107/107/2 47/47/2
f 25/25/2 104/104/2 106/106/2 41/41/2
f 125/125/2 130/130/2 105/105/2 35/35/2
f 58/58/2 109/109/2 104/104/2 25/25/2
f 84/84/2 110/110/2 103/103/2 24/24/2
f 41/41/2 106/106/2 102/102/2 23/23/2
f 53/53/2 108/108/2 101/101/2 22/22/2
f 35/35/2 105/105/2 120/120/2 115/115/2
f 36/36/2 94/94/2 119/119/2 116/116/2
f 33/33/2 76/76/2 118/118/2 113/113/2
f 34/34/2 66/66/2 117/117/2 114/114/2
f 66/66/2 33/33/2 113/113/2 117/117/2
f 105/105/2 32/32/2 112/112/2 120/120/2
f 94/94/2 34/34/2 114/114/2 119/119/2
f 76/76/2 35/35/2 115/115/2 118/118/2
f 136/136/2 36/36/2 116/116/2 142/142/2
f 21/21/2 100/100/2 130/130/2 125/125/2
f 30/30/2 89/89/2 129/129/2 126/126/2
f 7/7/2 75/75/2 128/128/2 123/123/2
f 18/18/2 61/61/2 127/127/2 124/124/2
f 61/61/2 7/7/2 123/123/2 127/127/2
f 100/100/2 2/2/2 122/122/2 130/130/2
f 89/89/2 18/18/2 124/124/2 129/129/2
f 75/75/2 21/21/2 125/125/2 128/128/2
f 135/135/10 30/30/10 126/126/10 143/143/10
f 1/1/11 135/135/11 143/143/11 121/121/11
f 31/31/2 136/136/2 142/142/2 111/111/2
f 43/43/2 138/138/2 141/141/2 86/86/2
f 111/111/2 142/142/2 140/140/2 60/60/2
f 11/11/2 133/133/2 139/139/2 51/51/2
f 5/5/2 132/132/2 138/138/2 43/43/2
f 13/13/2 134/134/2 137/137/2 39/39/2
f 121/121/12 143/143/12 136/136/12 31/31/12
f 60/60/2 140/140/2 134/134/2 13/13/2
f 86/86/2 141/141/2 133/133/2 11/11/2
f 51/51/13 139/139/13 131/131/13 3/3/13
f 39/39/2 137/137/2 132/132/2 5/5/2
f 251/251/14 244/244/14 147/147/14 192/192/14
f 249/249/15 245/245/15 149/149/15 180/180/15
f 210/210/15 206/206/15 152/152/15 181/181/15
f 212/212/15 205/205/15 151/151/15 193/193/15
f 230/230/15 207/207/15 155/155/15 225/225/15
f 253/253/16 246/246/16 153/153/16 224/224/16
f 213/213/15 208/208/15 158/158/15 199/199/15
f 252/252/15 247/247/15 157/157/15 198/198/15
f 241/241/15 236/236/15 163/163/15 200/200/15
f 242/242/15 235/235/15 162/162/15 226/226/15
f 240/240/15 233/233/15 159/159/15 195/195/15
f 238/238/15 234/234/15 160/160/15 183/183/15
f 223/223/15 217/217/15 168/168/15 201/201/15
f 231/231/15 216/216/15 167/167/15 227/227/15
f 220/220/15 215/215/15 166/166/15 184/184/15
f 222/222/15 214/214/15 165/165/15 196/196/15
f 280/280/15 275/275/15 170/170/15 185/185/15
f 282/282/17 274/274/17 169/169/17 197/197/17
f 284/284/15 276/276/15 171/171/15 228/228/15
f 283/283/15 277/277/15 172/172/15 202/202/15
f 286/286/15 279/279/15 179/179/15 269/269/15
f 271/271/15 219/219/15 178/178/15 268/268/15
f 272/272/15 237/237/15 177/177/15 267/267/15
f 273/273/15 248/248/15 175/175/15 265/265/15
f 270/270/15 209/209/15 176/176/15 266/266/15
f 277/277/15 280/280/15 185/185/15 172/172/15
f 217/217/15 220/220/15 184/184/15 168/168/15
f 236/236/15 238/238/15 183/183/15 163/163/15
f 208/208/15 210/210/15 181/181/15 158/158/15
f 247/247/15 249/249/15 180/180/15 157/157/15
f 275/275/15 281/281/15 191/191/15 170/170/15
f 215/215/15 221/221/15 190/190/15 166/166/15
f 234/234/15 239/239/15 189/189/15 160/160/15
f 245/245/18 250/250/18 187/187/18 149/149/18
f 206/206/15 211/211/15 188/188/15 152/152/15
f 276/276/15 282/282/15 197/197/15 171/171/15
f 216/216/15 222/222/15 196/196/15 167/167/15
f 235/235/15 240/240/15 195/195/15 162/162/15
f 207/207/15 212/212/15 193/193/15 155/155/15
f 246/246/19 251/251/19 192/192/19 153/153/19
f 285/285/15 283/283/15 202/202/15 259/259/15
f 261/261/15 223/223/15 201/201/15 258/258/15
f 262/262/15 241/241/15 200/200/15 257/257/15
f 263/263/15 252/252/15 198/198/15 255/255/15
f 260/260/15 213/213/15 199/199/15 256/256/15
f 257/257/15 200/200/15 213/213/15 260/260/15
f 162/162/15 195/195/15 212/212/15 207/207/15
f 160/160/15 189/189/15 211/211/15 206/206/15
f 163/163/15 183/183/15 210/210/15 208/208/15
f 267/267/15 177/177/15 209/209/15 270/270/15
f 200/200/15 163/163/15 208/208/15 213/213/15
f 226/226/15 162/162/15 207/207/15 230/230/15
f 195/195/15 159/159/15 205/205/15 212/212/15
f 183/183/15 160/160/15 206/206/15 210/210/15
f 256/256/15 199/199/15 223/223/15 261/261/15
f 155/155/15 193/193/15 222/222/15 216/216/15
f 152/152/15 188/188/15 221/221/15 215/215/15
f 158/158/15 181/181/15 220/220/15 217/217/15
f 266/266/15 176/176/15 219/219/15 271/271/15
f 193/193/15 151/151/15 214/214/15 222/222/15
f 181/181/15 152/152/15 215/215/15 220/220/15
f 225/225/15 155/155/15 216/216/15 231/231/15
f 199/199/15 158/158/15 217/217/15 223/223/15
f 188/188/15 225/225/15 231/231/15 221/221/15
f 189/189/15 226/226/15 230/230/15 211/211/15
f 281/281/15 284/284/15 228/228/15 191/191/15
f 221/221/15 231/231/15 227/227/15 190/190/15
f 239/239/15 242/242/15 226/226/15 189/189/15
f 250/250/20 253/253/20 224/224/20 187/187/20
f 211/211/15 230/230/15 225/225/15 188/188/15
f 191/191/15 228/228/15 242/242/15 239/239/15
f 259/259/15 202/202/15 241/241/15 262/262/15
f 171/171/15 197/197/15 240/240/15 235/235/15
f 170/170/15 191/191/15 239/239/15 234/234/15
f 172/172/15 185/185/15 238/238/15 236/236/15
f 269/269/15 179/179/15 237/237/15 272/272/15
f 185/185/15 170/170/15 234/234/15 238/238/15
f 197/197/15 169/169/15 233/233/15 240/240/15
f 228/228/15 171/171/15 235/235/15 242/242/15
f 202/202/15 172/172/15 236/236/15 241/241/15
f 190/190/15 227/227/15 253/253/15 250/250/15
f 258/258/15 201/201/15 252/252/15 263/263/15
f 167/167/15 196/196/15 251/251/15 246/246/15
f 166/166/15 190/190/15 250/250/15 245/245/15
f 168/168/15 184/184/15 249/249/15 247/247/15
f 268/268/15 178/178/15 248/248/15 273/273/15
f 201/201/15 168/168/15 247/247/15 252/252/15
f 227/227/15 167/167/15 246/246/15 253/253/15
f 184/184/15 166/166/15 245/245/15 249/249/15
f 196/196/15 165/165/15 244/244/15 251/251/15
f 178/178/15 258/258/15 263/263/15 248/248/15
f 179/179/15 259/259/15 262/262/15 237/237/15
f 176/176/15 256/256/15 261/261/15 219/219/15
f 177/177/15 257/257/15 260/260/15 209/209/15
f 209/209/15 260/260/15 256/256/15 176/176/15
f 248/248/15 263/263/15 255/255/15 175/175/15
f 237/237/15 262/262/15 257/257/15 177/177/15
f 219/219/15 261/261/15 258/258/15 178/178/15
f 279/279/15 285/285/15 259/259/15 179/179/15
f 164/164/15 268/268/15 273/273/15 243/243/15
f 173/173/15 269/269/15 272/272/15 232/232/15
f 150/150/15 266/266/15 271/271/15 218/218/15
f 161/161/15 267/267/15 270/270/15 204/204/15
f 204/204/15 270/270/15 266/266/15 150/150/15
f 243/243/15 273/273/15 265/265/15 145/145/15
f 232/232/15 272/272/15 267/267/15 161/161/15
f 218/218/15 271/271/15 268/268/15 164/164/15
f 278/278/15 286/286/15 269/269/15 173/173/15
f 144/144/15 264/264/15 286/286/15 278/278/15
f 174/174/15 254/254/15 285/285/15 279/279/15
f 186/186/15 229/229/15 284/284/15 281/281/15
f 254/254/15 203/203/15 283/283/15 285/285/15
f 154/154/21 194/194/21 282/282/21 276/276/21
f 148/148/15 186/186/15 281/281/15 275/275/15
f 156/156/15 182/182/15 280/280/15 277/277/15
f 264/264/15 174/174/15 279/279/15 286/286/15
f 203/203/15 156/156/15 277/277/15 283/283/15
f 229/229/15 154/154/15 276/276/15 284/284/15
f 194/194/22 146/146/22 274/274/22 282/282/22
f 182/182/15 148/148/15 275/275/15 280/280/15
f 1/1/23 121/121/23 264/264/23 144/144/23
f 2/2/24 100/100/24 243/243/24 145/145/24
f 4/4/25 49/49/25 192/192/25 147/147/25
f 3/3/26 131/131/26 274/274/26 146/146/26
f 5/5/27 43/43/27 186/186/27 148/148/27
f 6/6/28 37/37/28 180/180/28 149/149/28
f 7/7/24 61/61/24 204/204/24 150/150/24
f 8/8/29 71/71/29 214/214/29 151/151/29
f 10/10/28 81/81/28 224/224/28 153/153/28
f 11/11/30 51/51/30 194/194/30 154/154/30
f 13/13/27 39/39/27 182/182/27 156/156/27
f 14/14/28 55/55/28 198/198/28 157/157/28
f 16/16/29 62/62/29 205/205/29 159/159/29
f 18/18/24 89/89/24 232/232/24 161/161/24
f 21/21/24 75/75/24 218/218/24 164/164/24
f 22/22/31 101/101/31 244/244/31 165/165/31
f 26/26/29 90/90/29 233/233/29 169/169/29
f 30/30/32 135/135/32 278/278/32 173/173/32
f 31/31/33 111/111/33 254/254/33 174/174/33
f 32/32/28 122/122/28 265/265/28 175/175/28
f 37/37/28 14/14/28 157/157/28 180/180/28
f 39/39/27 5/5/27 148/148/27 182/182/27
f 43/43/27 86/86/27 229/229/27 186/186/27
f 44/44/28 6/6/28 149/149/28 187/187/28
f 49/49/34 10/10/34 153/153/34 192/192/34
f 51/51/35 3/3/35 146/146/35 194/194/35
f 55/55/28 112/112/28 255/255/28 198/198/28
f 60/60/27 13/13/27 156/156/27 203/203/27
f 61/61/24 18/18/24 161/161/24 204/204/24
f 62/62/29 8/8/29 151/151/29 205/205/29
f 71/71/29 22/22/29 165/165/29 214/214/29
f 75/75/24 7/7/24 150/150/24 218/218/24
f 81/81/28 44/44/28 187/187/28 224/224/28
f 86/86/27 11/11/27 154/154/27 229/229/27
f 89/89/24 30/30/24 173/173/24 232/232/24
f 90/90/29 16/16/29 159/159/29 233/233/29
f 100/100/24 21/21/24 164/164/24 243/243/24
f 101/101/36 4/4/36 147/147/36 244/244/36
f 111/111/37 60/60/37 203/203/37 254/254/37
f 112/112/28 32/32/28 175/175/28 255/255/28
f 121/121/38 31/31/38 174/174/38 264/264/38
f 122/122/28 2/2/28 145/145/28 265/265/28
f 131/131/39 26/26/39 169/169/39 274/274/39
f 135/135/40 1/1/40 144/144/40 278/278/40
